<?xml version="1.0" standalone="no"?>
<!DOCTYPE svg PUBLIC "-//W3C//DTD SVG 20010904//EN"
 "http://www.w3.org/TR/2001/REC-SVG-20010904/DTD/svg10.dtd">
<svg version="1.0" xmlns="http://www.w3.org/2000/svg"
 width="600.000000pt" height="600.000000pt" viewBox="0 0 600.000000 600.000000"
 preserveAspectRatio="xMidYMid meet">
<metadata>
Created by potrace 1.14, written by Peter Selinger 2001-2017
</metadata>
<g transform="translate(0.000000,600.000000) scale(0.100000,-0.100000)"
fill="#000000" stroke="none">
<path d="M3100 5539 c-54 -18 -75 -32 -137 -94 -82 -81 -129 -167 -161 -293
l-19 -73 -189 -3 c-340 -6 -482 -43 -794 -203 -3 -2 -14 26 -24 62 -42 146
-117 255 -213 307 -69 38 -170 53 -257 40 -167 -26 -291 -137 -354 -316 -22
-63 -25 -87 -25 -211 -1 -112 4 -155 21 -217 38 -140 126 -301 223 -412 l38
-43 -30 -89 c-16 -49 -42 -145 -56 -214 -24 -113 -27 -146 -27 -345 -1 -324
35 -508 164 -855 38 -103 90 -291 84 -302 -3 -5 -38 -31 -79 -58 -40 -27 -82
-65 -94 -83 -20 -33 -21 -37 -7 -104 8 -39 29 -114 47 -169 28 -86 31 -108 26
-172 -5 -68 -14 -91 -101 -271 -113 -234 -121 -267 -110 -496 11 -261 -14
-329 -236 -637 l-34 -48 24 -32 c13 -18 46 -59 74 -91 l50 -58 -18 -29 c-19
-33 -12 -39 16 -13 17 15 19 15 36 0 17 -16 91 -17 853 -17 l835 0 18 73 c37
160 133 329 266 470 78 83 133 123 191 138 42 10 56 7 299 -74 161 -54 310
-97 405 -116 177 -36 303 -63 400 -86 240 -55 577 -67 716 -25 96 30 156 61
248 130 167 125 197 138 258 110 64 -28 64 -86 0 -172 -31 -42 -17 -73 40 -92
48 -15 183 -38 301 -51 l62 -7 0 171 0 170 -32 17 c-101 51 -398 267 -430 313
-37 51 -207 161 -248 161 -11 0 -345 139 -443 184 -42 20 -81 36 -86 36 -5 0
-14 7 -21 15 -10 12 -4 38 30 137 52 152 61 222 32 259 -11 14 -54 41 -96 60
-41 19 -75 37 -76 42 0 4 34 47 75 95 87 100 146 196 215 349 129 284 144 530
49 760 -40 95 -87 145 -209 223 -310 198 -309 196 -219 436 54 145 58 179 24
245 -8 15 -15 37 -15 48 0 10 -16 39 -35 63 -20 23 -49 60 -66 81 -34 42 -86
72 -143 82 -27 5 -43 17 -58 39 -11 17 -55 57 -97 88 -75 56 -409 350 -443
390 -17 19 -17 21 3 50 57 79 81 244 55 378 -30 162 -116 287 -235 342 -67 31
-178 34 -261 7z m236 -68 c135 -64 219 -225 216 -416 -1 -80 -29 -190 -57
-228 -13 -17 -16 -17 -62 15 -156 109 -232 141 -533 226 -30 8 -56 16 -58 18
-6 4 45 180 59 207 34 64 167 179 227 197 61 19 145 11 208 -19z m-1866 -248
c67 -16 80 -23 131 -73 123 -120 163 -225 163 -420 0 -80 -6 -147 -16 -187 -9
-34 -13 -64 -10 -67 11 -12 21 -5 42 29 19 30 23 56 28 162 5 123 6 128 33
153 74 67 327 165 504 195 230 39 611 8 780 -63 176 -74 351 -187 480 -312 55
-53 132 -121 170 -152 91 -73 157 -136 178 -170 22 -35 14 -72 -19 -87 -26
-11 -24 -31 1 -31 9 0 14 -9 12 -22 -2 -19 4 -24 31 -26 38 -4 42 -19 7 -28
-14 -3 -25 -10 -25 -15 0 -5 1 -9 3 -9 1 -1 45 -5 97 -9 91 -8 119 -17 235
-72 85 -41 108 -126 66 -241 -12 -32 -30 -84 -42 -115 -30 -83 -35 -159 -12
-203 25 -47 134 -137 232 -190 126 -67 207 -161 253 -290 20 -58 22 -82 20
-214 -1 -83 -7 -175 -13 -205 -29 -138 -166 -423 -264 -551 -47 -61 -196 -215
-265 -275 -92 -78 -256 -168 -446 -243 -140 -55 -246 -79 -411 -93 l-142 -12
-88 28 c-48 15 -101 31 -118 35 -39 10 -291 98 -330 115 -46 20 -399 151 -636
235 -58 21 -153 56 -210 78 -57 23 -151 55 -209 72 -58 17 -143 43 -190 58
l-85 27 -8 85 c-14 151 -38 267 -78 382 -63 180 -86 248 -108 328 -103 376
-105 801 -4 1132 l27 87 34 -15 c42 -17 42 -17 42 0 0 8 -7 17 -16 20 -10 4
-13 13 -9 26 5 15 -2 25 -29 41 -90 53 -216 258 -255 414 -29 116 -31 334 -5
412 20 59 74 143 92 143 8 0 32 20 54 44 50 57 145 106 207 106 25 0 80 -8
121 -17z m2848 -3672 l16 -131 -92 -93 -93 -92 -97 1 c-178 2 -612 83 -612
115 0 5 12 9 28 9 15 0 79 11 143 24 201 42 399 127 579 249 52 35 99 61 103
57 5 -4 16 -66 25 -139z"/>
<path d="M1067 5047 c-17 -26 -47 -122 -46 -146 0 -10 5 -6 11 9 6 14 19 44
29 66 20 47 34 94 26 94 -2 0 -12 -10 -20 -23z"/>
<path d="M2975 4193 c-56 -30 -174 -124 -219 -174 -50 -55 -106 -147 -106
-173 0 -9 7 -16 15 -16 13 0 14 -4 5 -20 -20 -37 13 -23 60 26 95 98 231 185
355 228 75 26 90 41 53 55 -22 9 -22 10 10 16 17 4 32 11 32 16 0 12 -38 21
-60 14 -13 -4 -23 0 -32 14 -15 24 -38 27 -57 9 -11 -11 -13 -10 -8 5 8 21 -8
21 -48 0z m30 -122 c-16 -10 -41 -22 -55 -26 l-25 -7 22 16 c23 17 62 34 78
35 6 0 -3 -8 -20 -18z"/>
<path d="M3755 3658 c-31 -95 -58 -226 -59 -283 -1 -91 7 -119 41 -134 15 -7
127 -32 248 -56 231 -46 340 -75 334 -88 -2 -4 -40 -9 -84 -11 -102 -5 -175
-32 -242 -92 -52 -44 -53 -47 -53 -100 0 -73 19 -114 85 -183 64 -68 137 -104
205 -104 55 -1 98 21 163 82 l50 46 -7 -64 c-24 -213 -223 -506 -420 -615
l-69 -39 -111 6 c-241 12 -424 103 -628 315 -38 38 -68 72 -68 74 0 3 18 13
40 22 77 31 36 53 -47 25 -60 -20 -96 -41 -140 -83 -58 -53 -37 -63 32 -16 24
17 48 30 53 30 11 0 39 -54 90 -175 68 -163 111 -232 196 -319 139 -141 262
-186 433 -157 82 14 141 42 167 78 20 27 19 35 -11 125 -3 12 1 20 13 24 11 4
28 15 39 24 11 10 32 20 46 23 81 19 246 212 334 389 30 62 67 151 80 198 28
93 50 300 39 365 -21 131 -154 201 -489 256 -241 40 -275 57 -275 143 0 48 34
249 46 267 6 10 -7 39 -17 39 -5 0 -11 -6 -14 -12z"/>
<path d="M3991 3505 c-36 -31 -50 -86 -40 -168 8 -67 21 -87 58 -87 73 0 128
149 86 230 -15 28 -42 50 -64 50 -5 0 -23 -11 -40 -25z"/>
<path d="M3085 3372 c-43 -9 -94 -86 -95 -143 0 -40 30 -118 52 -133 48 -34
101 12 122 105 21 89 20 111 -4 141 -21 28 -43 36 -75 30z"/>
<path d="M3943 1671 c-43 -42 -126 -88 -220 -122 -76 -28 -86 -39 -37 -39 57
0 253 99 294 148 53 65 27 74 -37 13z"/>
</g>
</svg>
